<svg width="24" height="27" viewBox="0 0 24 27" fill="none" xmlns="http://www.w3.org/2000/svg">
<path fill-rule="evenodd" clip-rule="evenodd" d="M12 0C14.0501 2.93327e-08 15.6907 1.51342 16.7578 3.37891C17.2448 4.2303 17.6425 5.20425 17.9356 6.25C19.0114 6.25083 19.9112 6.25969 20.6387 6.34863C21.4822 6.45179 22.2454 6.67691 22.8672 7.24219C23.5026 7.81981 23.7688 8.55016 23.8887 9.36035C24.0027 10.1311 24 11.1023 24 12.25V17.25C24 19.2815 24.003 20.9158 23.8135 22.1973C23.6182 23.5179 23.201 24.6068 22.2637 25.459C21.3399 26.2988 20.1824 26.6603 18.7773 26.832C17.392 27.0013 15.618 27 13.375 27H10.625C8.38202 27 6.60804 27.0013 5.22266 26.832C3.81765 26.6603 2.66009 26.2988 1.73633 25.459C0.798983 24.6068 0.381829 23.5179 0.186529 22.1973C-0.00295827 20.9158 5.67386e-06 19.2815 5.67386e-06 17.25V12.25C5.67386e-06 11.1023 -0.00272037 10.1311 0.111334 9.36035C0.23124 8.55016 0.497432 7.81981 1.13282 7.24219C1.75464 6.67691 2.51783 6.45179 3.36133 6.34863C4.08857 6.25971 4.98803 6.25084 6.06348 6.25C6.35651 5.20416 6.75515 4.23037 7.24219 3.37891C8.30931 1.51342 9.94995 2.81618e-06 12 0ZM7.66993 8.25C7.5599 8.93799 7.50001 9.65176 7.50001 10.375C7.50001 10.9273 7.05229 11.375 6.50001 11.375C5.94772 11.375 5.50001 10.9273 5.50001 10.375C5.50001 9.65876 5.55193 8.94686 5.64844 8.25098C4.77361 8.25479 4.12161 8.27062 3.60352 8.33398C2.94996 8.41396 2.6624 8.5555 2.47852 8.72266C2.30822 8.8775 2.17138 9.10237 2.08985 9.65332C2.00248 10.2438 2.00001 11.0403 2.00001 12.25V17.25C2.00001 19.3433 2.00223 20.803 2.16504 21.9043C2.32208 22.9663 2.61018 23.5495 3.08204 23.9785C3.5676 24.4199 4.24985 24.6991 5.46583 24.8477C6.70149 24.9986 8.33076 25 10.625 25H13.375C15.6692 25 17.2985 24.9986 18.5342 24.8477C19.7502 24.6991 20.4324 24.4199 20.918 23.9785C21.3898 23.5495 21.6779 22.9663 21.835 21.9043C21.9978 20.803 22 19.3433 22 17.25V12.25C22 11.0403 21.9975 10.2438 21.9102 9.65332C21.8286 9.10237 21.6918 8.8775 21.5215 8.72266C21.3376 8.5555 21.0501 8.41396 20.3965 8.33398C19.8782 8.2706 19.2259 8.25478 18.3506 8.25098C18.4471 8.9469 18.5 9.65871 18.5 10.375C18.5 10.9273 18.0523 11.375 17.5 11.375C16.9477 11.375 16.5 10.9273 16.5 10.375C16.5 9.65176 16.4401 8.93799 16.3301 8.25H7.66993ZM12 2C11.0113 2 9.90171 2.75819 8.97852 4.37207C8.65918 4.93036 8.38125 5.56408 8.1543 6.25H15.8457C15.6188 5.56408 15.3408 4.93036 15.0215 4.37207C14.0983 2.75818 12.9887 2 12 2Z" fill="#FBFBFB"/>
</svg>
