<svg width="26" height="23" viewBox="0 0 26 23" fill="none" xmlns="http://www.w3.org/2000/svg">
<path d="M19.0777 8.49978L13.9677 0.846445C13.746 0.519779 13.3727 0.356445 12.9993 0.356445C12.626 0.356445 12.2527 0.519779 12.031 0.858112L6.92102 8.49978H1.33268C0.691016 8.49978 0.166016 9.02478 0.166016 9.66645C0.166016 9.77145 0.177682 9.87645 0.212682 9.98145L3.17602 20.7964C3.44435 21.7764 4.34268 22.4998 5.41602 22.4998H20.5827C21.656 22.4998 22.5543 21.7764 22.8343 20.7964L25.7977 9.98145L25.8327 9.66645C25.8327 9.02478 25.3077 8.49978 24.666 8.49978H19.0777ZM9.49935 8.49978L12.9993 3.36645L16.4993 8.49978H9.49935ZM12.9993 17.8331C11.716 17.8331 10.666 16.7831 10.666 15.4998C10.666 14.2164 11.716 13.1664 12.9993 13.1664C14.2827 13.1664 15.3327 14.2164 15.3327 15.4998C15.3327 16.7831 14.2827 17.8331 12.9993 17.8331Z" fill="white"/>
</svg>
