<svg width="13" height="13" viewBox="0 0 13 13" fill="none" xmlns="http://www.w3.org/2000/svg">
<path d="M8.90321 0.60818C9.28169 0.235496 9.79 0.0184729 10.325 0.00112598C10.8601 -0.016221 11.3818 0.167407 11.7844 0.514767L11.8856 0.60818L12.3825 1.09739C12.7609 1.46994 12.9812 1.97019 12.9989 2.49673C13.0165 3.02328 12.8301 3.53671 12.4774 3.93298L12.3825 4.03262L4.50169 11.7914C4.39026 11.9011 4.25528 11.9848 4.10667 12.0364L3.9928 12.0689L0.862111 12.7802C0.752417 12.8053 0.638198 12.8041 0.529074 12.7767C0.41995 12.7493 0.319116 12.6965 0.235063 12.6227C0.15101 12.5489 0.0861997 12.4563 0.0460895 12.3527C0.00597929 12.2491 -0.00825621 12.1375 0.00458192 12.0274L0.0186398 11.9492L0.740511 8.86656C0.776172 8.71536 0.845828 8.57396 0.94435 8.45277L1.02237 8.36628L8.90321 0.60818ZM8.40626 3.05421L2.08725 9.2748L1.64021 11.1832L3.57879 10.7424L9.8978 4.52183L8.40626 3.05421ZM10.8917 1.58659C10.7707 1.46745 10.6096 1.39589 10.4388 1.38531C10.268 1.37474 10.0991 1.42589 9.96387 1.52916L9.8978 1.58659L9.40015 2.0758L10.8917 3.54341L11.3886 3.05421C11.5097 2.93506 11.5824 2.77654 11.5931 2.60837C11.6038 2.44021 11.5519 2.27397 11.447 2.14084L11.3886 2.0758L10.8917 1.58659Z" fill="#FBFBFB"/>
</svg>
