<svg width="26" height="26" viewBox="0 0 26 26" fill="none" xmlns="http://www.w3.org/2000/svg">
<rect x="0.5" y="0.5" width="25" height="25" fill="#FBFBFB"/>
<rect x="0.5" y="0.5" width="25" height="25" stroke="#191919"/>
<path d="M15.4882 6.72779C15.9341 6.28181 16.5329 6.02211 17.1632 6.00135C17.7935 5.98059 18.4081 6.20033 18.8823 6.616L19.0015 6.72779L19.5869 7.3132C20.0327 7.75903 20.2922 8.35766 20.313 8.98775C20.3338 9.61784 20.1142 10.2323 19.6987 10.7065L19.5869 10.8257L10.3031 20.1104C10.1718 20.2416 10.0128 20.3418 9.83776 20.4035L9.70362 20.4424L6.01559 21.2936C5.88637 21.3237 5.75181 21.3222 5.62326 21.2894C5.49471 21.2566 5.37593 21.1934 5.27691 21.1051C5.17789 21.0168 5.10155 20.906 5.05429 20.782C5.00704 20.658 4.99027 20.5245 5.0054 20.3927L5.02196 20.2991L5.87234 16.6103C5.91435 16.4294 5.99641 16.2601 6.11247 16.1151L6.20438 16.0116L15.4882 6.72779ZM14.9028 9.65486L7.45884 17.0988L6.93222 19.3825L9.21591 18.8551L16.6599 11.4111L14.9028 9.65486ZM17.8307 7.89862C17.6881 7.75605 17.4984 7.67041 17.2972 7.65775C17.096 7.6451 16.897 7.70631 16.7377 7.82989L16.6599 7.89862L16.0736 8.48403L17.8307 10.2403L18.4161 9.65486C18.5587 9.51228 18.6443 9.32258 18.657 9.12135C18.6696 8.92012 18.6084 8.72118 18.4848 8.56187L18.4161 8.48403L17.8307 7.89862Z" fill="#191919"/>
</svg>
