<svg width="20" height="20" viewBox="0 0 20 20" fill="none" xmlns="http://www.w3.org/2000/svg">
<g clip-path="url(#clip0_4001_1699)">
<path d="M7.5 1.25C6.72418 1.24959 5.96734 1.48982 5.33377 1.93757C4.70021 2.38532 4.22111 3.01856 3.9625 3.75H0V6.25H3.9625C4.22075 6.98192 4.69967 7.61571 5.33325 8.06401C5.96683 8.51232 6.72386 8.75306 7.5 8.75306C8.27614 8.75306 9.03317 8.51232 9.66675 8.06401C10.3003 7.61571 10.7792 6.98192 11.0375 6.25H20V3.75H11.0375C10.7789 3.01856 10.2998 2.38532 9.66623 1.93757C9.03266 1.48982 8.27582 1.24959 7.5 1.25ZM12.5 11.25C11.7242 11.2496 10.9673 11.4898 10.3338 11.9376C9.7002 12.3853 9.2211 13.0186 8.9625 13.75H0V16.25H8.9625C9.22075 16.9819 9.69967 17.6157 10.3333 18.064C10.9668 18.5123 11.7239 18.7531 12.5 18.7531C13.2761 18.7531 14.0332 18.5123 14.6667 18.064C15.3003 17.6157 15.7792 16.9819 16.0375 16.25H20V13.75H16.0375C15.7789 13.0186 15.2998 12.3853 14.6662 11.9376C14.0327 11.4898 13.2758 11.2496 12.5 11.25Z" fill="#FBFBFB"/>
</g>
<defs>
<clipPath id="clip0_4001_1699">
<rect width="20" height="20" fill="white"/>
</clipPath>
</defs>
</svg>
