<svg width="18" height="16" viewBox="0 0 18 16" fill="none" xmlns="http://www.w3.org/2000/svg">
<path d="M9 16C8.88624 16.0011 8.77417 15.9724 8.675 15.9166C8.31667 15.7166 0 10.9916 0 4.99999C0 3.95058 0.330187 2.92777 0.943789 2.07644C1.55739 1.22512 2.4233 0.588436 3.41886 0.256583C4.41442 -0.0752696 5.48916 -0.0854683 6.49084 0.227432C7.49252 0.540332 8.37035 1.16047 9 2C9.62965 1.16047 10.5075 0.540332 11.5092 0.227432C12.5108 -0.0854683 13.5856 -0.0752696 14.5811 0.256583C15.5767 0.588436 16.4426 1.22512 17.0562 2.07644C17.6698 2.92777 18 3.95058 18 4.99999C18 7.54998 16.525 10.1666 13.6167 12.7833C12.296 13.9705 10.8581 15.0204 9.325 15.9166C9.22583 15.9724 9.11376 16.0011 9 16Z" fill="#FF0000"/>
</svg>
