<svg width="186" height="72" viewBox="0 0 186 72" fill="none" xmlns="http://www.w3.org/2000/svg">
<g clip-path="url(#clip0_212_1509)">
<path d="M129.262 8.04034e-05C130.007 1.04224 130.715 2.03096 131.42 3.02158C132.795 4.95511 134.15 6.90582 135.557 8.81645C135.957 9.36044 136.059 9.88533 135.946 10.519C135.662 12.109 135.4 13.7028 135.127 15.2927C135.082 15.56 135.006 15.8234 135.074 16.0619C135.245 16.2261 135.393 16.1459 135.533 16.1154C138.897 15.3538 142.261 14.5846 145.628 13.8249C147.899 13.3115 150.176 12.8209 152.445 12.3056C155.281 11.6624 158.111 10.9981 160.945 10.353C163.186 9.84334 165.433 9.35471 167.676 8.8489C171.603 7.96325 175.53 7.07379 179.455 6.18433C180.016 6.05644 180.58 5.94192 181.133 5.78731C181.543 5.67088 181.817 5.77014 182.062 6.12516C182.787 7.17686 183.535 8.2133 184.276 9.25546C185.598 11.1165 186.917 12.9775 188.247 14.8327C188.529 15.2259 188.65 15.6039 188.514 16.1078C187.809 18.7265 187.138 21.3529 186.437 24.0442C186.178 24.1339 185.901 24.2561 185.615 24.3229C182.7 25.0081 179.781 25.6838 176.865 26.3652C176.545 26.4396 176.229 26.5313 175.875 26.6248C175.285 29.5509 174.814 32.4693 174.285 35.3744C173.757 38.2832 173.23 41.1921 172.73 44.1048C172.232 47.0099 171.718 49.9112 171.177 52.8678C170.781 52.7685 170.557 52.5624 170.32 52.3925C168.373 50.9934 166.429 49.5867 164.488 48.1819C163.66 47.5825 163.658 47.5711 162.677 47.7906C159.282 48.5502 155.887 49.308 152.497 50.081C150.076 50.6327 147.658 51.2072 145.241 51.7703C145.124 51.797 145.003 51.8142 144.887 51.8485C144.698 51.9058 144.573 52.0337 144.554 52.236C144.535 52.4478 144.529 52.6616 144.523 52.8754C144.385 58.2141 144.249 63.5528 144.108 68.8915C144.103 69.0938 144.065 69.2942 144.042 69.4984C143.684 69.4774 143.608 69.2102 143.474 69.0308C142.153 67.2442 140.843 65.4519 139.528 63.6597C138.431 62.1632 137.298 60.6916 136.245 59.1627C135.243 57.7102 134.318 56.2061 133.373 54.7154C132.345 53.0968 131.333 51.4668 130.31 49.8463C130.134 49.5676 129.935 49.3042 129.764 49.0561C129.497 49.0771 129.505 49.2507 129.48 49.3901C129.412 49.7814 129.357 50.1746 129.291 50.5639C129.24 50.8617 129.175 51.1556 129.111 51.4859C128.806 51.5851 128.527 51.7015 128.238 51.7683C124.373 52.6502 120.507 53.5167 116.644 54.4043C113.96 55.0227 111.281 55.6774 108.599 56.3035C106.388 56.8207 104.176 57.3208 101.963 57.8266C99.6046 58.3649 97.2442 58.8974 94.8839 59.4338C94.7664 59.4605 94.649 59.4891 94.5315 59.5216C94.0958 59.6418 93.7946 59.4948 93.5313 59.1169C92.2053 57.2216 90.8603 55.3415 89.5172 53.4576C89.3448 53.2171 89.1516 52.9918 88.9186 52.6979C88.7273 52.9441 88.5681 53.1178 88.4431 53.3125C87.369 55.0113 86.2987 56.71 85.236 58.4164C84.9594 58.8611 84.626 59.2372 84.2301 59.5807C79.3408 63.82 74.461 68.0688 69.5754 72.3138C69.2572 72.5906 68.9276 72.854 68.6131 73.1155C68.2229 73.0276 68.1073 72.7165 67.9387 72.4818C66.6108 70.6265 65.2904 68.7636 63.9682 66.9026C62.9282 65.4386 61.8882 63.9765 60.8501 62.5106C60.7289 62.3407 60.6266 62.1556 60.4921 61.9399C60.8444 61.3387 61.193 60.745 61.5965 60.0598C61.3464 60.0598 61.2062 60.035 61.0755 60.0636C59.9522 60.3137 58.8307 60.5771 57.7093 60.8328C56.9743 61.0008 56.2374 61.1611 55.4588 61.3329C55.275 61.1058 55.0951 60.9054 54.9397 60.6878C54.1252 59.5502 53.3182 58.4069 52.5017 57.2693C52.3483 57.0555 52.1645 56.8627 51.9751 56.6356C51.5659 56.9811 51.3803 57.4105 51.17 57.798C50.9105 58.2752 50.5373 58.4832 50.0372 58.5958C45.5779 59.5979 41.1205 60.6114 36.6631 61.6211C35.4526 61.8941 34.2459 62.1785 33.0298 62.4247C32.4766 62.5373 32.0182 62.7759 31.5844 63.1329C29.2089 65.0759 26.822 67.0018 24.437 68.9315C24.2021 69.1224 23.9559 69.2961 23.7361 69.4622C23.3743 69.424 23.272 69.1358 23.1186 68.9239C22.0028 67.3645 20.8984 65.7974 19.7883 64.2342C18.6972 62.6958 17.6193 61.1459 16.4997 59.6284C16.1815 59.1971 16.0754 58.7924 16.1872 58.2771C16.3292 57.6224 16.3993 56.9524 16.5433 56.2996C16.6664 55.7385 16.5509 55.3224 16.1057 54.9235C14.7929 53.7477 13.5105 52.5376 12.2299 51.3255C11.8794 50.9934 11.5422 50.6346 11.26 50.2414C9.57401 47.8936 7.91457 45.5268 6.22102 43.1848C5.87057 42.7 5.77017 42.2324 5.88383 41.6521C6.08842 40.6062 6.22102 39.5468 6.41235 38.497C6.47865 38.1306 6.38772 37.8538 6.17935 37.5637C4.8874 35.7561 3.60683 33.9409 2.32436 32.1276C1.62156 31.1351 0.91686 30.1426 0.214059 29.1481C0.128813 29.0279 0.0606167 28.8962 0.00189209 28.7988C0.0757715 28.4877 0.306881 28.4667 0.49821 28.3961C2.42855 27.6822 4.35888 26.9703 6.28922 26.2545C9.69714 24.9928 13.1051 23.7274 16.5149 22.4676C16.9942 22.2901 17.4791 22.1298 18.0057 21.9465C19.1878 23.4544 20.1804 25.0577 21.3379 26.537C21.8285 26.1037 21.8266 26.0961 22.5275 25.9281C23.6168 25.6647 24.7079 25.407 25.801 25.1589C29.224 24.382 32.6509 23.6128 36.074 22.8398C38.8776 22.208 41.6812 21.5801 44.4849 20.9425C47.6143 20.2306 50.7419 19.511 53.8713 18.799C55.1102 18.5166 56.351 18.2474 57.588 17.9649C57.8495 17.9058 58.1071 17.8237 58.4481 17.7302C58.1431 17.2454 57.8779 16.8197 57.571 16.3349C57.7888 16.2299 57.9593 16.1097 58.1469 16.0639C59.0599 15.8424 59.9768 15.6382 60.8918 15.4321C64.3755 14.6514 67.8592 13.8746 71.3429 13.092C74.2071 12.4487 77.0714 11.8017 79.9356 11.1546C82.1501 10.6545 84.3646 10.1564 86.5772 9.64865C86.8727 9.57994 87.1606 9.4845 87.5376 9.59712C88.7405 11.2787 89.9756 13.0061 91.2145 14.7392C91.4362 14.7182 91.6161 14.722 91.7885 14.6839C94.649 14.0349 97.5075 13.3821 100.366 12.7255C100.449 12.7064 100.52 12.6339 100.614 12.5747C100.557 12.2254 100.311 11.9868 100.124 11.7215C99.2295 10.4541 98.324 9.19247 97.4299 7.92508C97.2935 7.7323 97.1836 7.52234 97.0245 7.25703C97.2196 7.1845 97.3446 7.1196 97.4791 7.08906C98.9245 6.75122 100.37 6.41147 101.817 6.08507C104.738 5.42466 107.659 4.76806 110.582 4.11337C112.797 3.6171 115.013 3.13229 117.228 2.63411C120.387 1.92216 123.545 1.20257 126.705 0.486804C127.325 0.345558 127.94 0.192861 128.562 0.0611594C128.766 0.0172589 128.978 0.0210763 129.264 -0.00564575L129.262 8.04034e-05ZM54.989 31.2305L54.9757 31.2172C54.631 33.3225 54.2862 35.4278 53.9395 37.5312C53.5815 39.6976 53.214 41.8621 52.8579 44.0285C52.5358 45.9849 52.2214 47.9433 51.9107 49.9016C51.869 50.1612 51.7705 50.4303 51.9164 50.7415C52.1551 50.7224 52.3956 50.73 52.6249 50.6804C53.9547 50.3902 55.2788 50.0753 56.6125 49.7985C57.0444 49.7088 57.1978 49.4779 57.266 49.0618C57.535 47.4375 57.8419 45.8189 58.1241 44.1965C58.8591 39.9591 59.596 35.7237 60.3178 31.4844C60.8198 28.5411 61.2991 25.5941 61.7878 22.6489C61.9791 21.498 61.9659 21.4617 61.1683 20.6219C61.1267 20.578 61.0869 20.5322 61.0452 20.4864C60.9088 20.3394 60.7402 20.2955 60.5489 20.3298C60.4296 20.3508 60.314 20.3852 60.1947 20.4119C57.715 20.9654 55.2353 21.5152 52.7556 22.0706C50.8953 22.4867 49.0351 22.9066 47.1767 23.3342C46.8907 23.3991 46.5705 23.3972 46.3546 23.6415C46.3641 24.2828 46.7865 26.5408 47.1521 27.8578C47.1995 28.0277 47.298 28.1823 47.3851 28.3713C48.4422 28.23 49.4272 27.8216 50.5259 27.7605C50.4539 28.2014 50.2171 28.4858 50.0315 28.7912C47.1597 33.4943 44.2841 38.1954 41.4085 42.8947C41.1395 43.3356 40.8515 43.7651 40.573 44.2003C40.0521 44.3472 39.5349 44.5114 39.0083 44.6393C37.7145 44.9542 36.4188 45.2539 35.123 45.5593C34.8654 45.6204 34.604 45.7196 34.2952 45.5268C34.443 44.0399 34.7896 42.595 35.0245 41.1158C36.1801 40.7035 37.3697 40.6004 38.5139 40.2225C39.6941 38.3539 40.8837 36.4776 42.0639 34.5956C42.1169 34.5116 42.1075 34.3895 42.1435 34.1986C41.8006 34.2539 41.5354 34.2826 41.2758 34.3417C39.6827 34.7044 38.0915 35.0747 36.5002 35.4431C36.3562 35.4755 36.2104 35.5423 36.0835 35.4049C36.0721 34.5574 36.5362 31.8031 36.8279 30.9958C37.8376 30.7457 38.8625 30.488 39.8892 30.238C41.4198 29.8639 42.9504 29.4974 44.4792 29.1176C44.6724 29.0699 44.8505 28.9534 45.0153 28.879C45.0153 28.7301 45.0323 28.6347 45.0134 28.5488C44.7198 27.2089 44.4224 25.8689 44.1174 24.5309C44.0852 24.3935 43.9886 24.2694 43.9147 24.1263C43.729 24.153 43.5813 24.1645 43.4373 24.1969C42.4636 24.4202 41.4918 24.655 40.5181 24.8726C37.9191 25.4509 35.32 26.0216 32.721 26.6C32.4918 26.6515 32.272 26.7489 32.0542 26.8214C31.9614 27.3177 31.8685 27.7624 31.7947 28.2128C31.3931 30.6789 31.0066 33.1488 30.5861 35.611C30.516 36.0195 30.6467 36.5539 30.2735 36.8097C29.942 37.0369 29.4836 37.0903 29.0744 37.1838C28.7959 37.2468 28.5099 37.3957 28.1859 37.2659C28.1859 37.0235 28.1575 36.8097 28.1897 36.6074C28.5137 34.6529 28.849 32.7022 29.1805 30.7476C29.332 29.8467 29.4892 28.9458 29.6256 28.043C29.6597 27.8177 29.7507 27.5601 29.4741 27.3329C27.7483 27.7662 25.9639 28.0792 24.1964 28.6041C23.541 31.9807 23.0939 35.3629 22.4574 38.7299C22.1297 38.8196 21.8418 38.9055 21.55 38.9761C20.5195 39.2242 19.489 39.4686 18.4566 39.7072C17.4261 39.9476 16.3936 40.1843 15.3593 40.4153C15.0771 40.4783 14.7853 40.6042 14.4557 40.3962C14.505 40.0221 14.5448 39.6613 14.6035 39.3044C14.7569 38.373 14.9217 37.4415 15.0752 36.51C15.3423 34.8876 15.6018 33.2614 15.8708 31.639C16.1796 29.7761 16.4959 27.9132 16.8028 26.0484C16.8256 25.9148 16.8009 25.7716 16.7971 25.5483C15.5582 25.909 14.4387 26.3633 13.3097 26.7794C10.6121 27.7758 7.92593 28.8084 5.23786 29.8334C5.20376 29.8467 5.19429 29.9307 5.16398 30.0032C5.77017 30.0032 6.36878 30.0147 6.96739 29.9994C7.60389 29.9841 8.2385 29.9288 8.8731 29.9173C9.46793 29.9059 10.0684 29.7494 10.7106 29.9326C10.6955 30.196 10.7049 30.4365 10.667 30.6694C10.2825 33.0152 9.88847 35.361 9.50013 37.7068C9.30501 38.8788 9.12126 40.0545 8.92425 41.2265C8.87121 41.5472 8.89962 41.8163 9.15915 42.0549C10.4776 43.2688 11.7904 44.4923 13.0994 45.7196C13.3703 45.9754 13.6639 46.0403 14.0162 45.9544C14.6622 45.796 15.312 45.649 15.9598 45.5001C17.5814 45.1241 19.2011 44.7481 20.8245 44.3778C21.0499 44.3262 21.2962 44.2136 21.4932 44.4484C21.4989 44.4847 21.5084 44.5133 21.5065 44.5438C21.5008 44.6355 21.4989 44.7271 21.4837 44.8168C20.7791 49.0904 20.0744 53.364 19.3716 57.6377C19.3678 57.6644 19.3791 57.6987 19.3943 57.7216C19.4075 57.7445 19.436 57.7617 19.4985 57.819C19.6784 57.693 19.8792 57.567 20.063 57.422C20.4684 57.1013 20.8605 56.7673 21.264 56.4447C22.4499 55.4942 23.63 54.5398 24.8254 53.6045C25.1588 53.343 25.3387 53.0338 25.4107 52.6177C25.7953 50.3635 26.195 48.1112 26.5928 45.857C26.7349 45.0458 26.8864 44.2365 27.0323 43.4253C27.0758 43.1791 27.1308 42.9214 27.4036 42.847C28.0344 42.6771 28.6614 42.4672 29.4192 42.4462C29.332 43.6009 29.099 44.666 28.9209 45.7387C28.7429 46.8209 28.5421 47.9013 28.3924 48.9892C28.2466 50.0619 27.97 51.1213 27.9472 52.2684C28.2219 52.2322 28.4284 52.2207 28.6292 52.1768C31.3476 51.566 34.0641 50.9495 36.7806 50.3349C38.9344 49.8463 41.0864 49.3519 43.2441 48.8747C43.6248 48.7907 43.9204 48.6304 44.1155 48.2868C44.2045 48.1284 44.3144 47.9795 44.4091 47.8249C46.0098 45.2348 47.6124 42.6466 49.2113 40.0564C50.9218 37.285 52.6305 34.5116 54.3411 31.7402C54.4529 31.5607 54.5817 31.389 54.7257 31.2343C54.7655 31.1924 54.8905 31.2343 54.9757 31.2343L54.989 31.2305ZM123.098 32.9026C123.339 33.2309 123.471 33.3912 123.583 33.5668C125.707 36.9071 127.821 40.253 129.95 43.5895C131.49 46.0021 133.047 48.4014 134.603 50.8063C134.767 51.0621 134.947 51.3103 135.141 51.5431C135.307 51.7416 135.533 51.8294 135.794 51.7454C136.031 51.6691 136.105 51.4668 136.131 51.2473C136.198 50.6708 136.281 50.0963 136.309 49.518C136.381 48.0253 136.408 46.5289 136.493 45.0363C136.531 44.3682 136.436 43.7651 136.01 43.2383C135.953 43.1677 135.915 43.0818 135.868 43.0035C133.907 39.8847 131.945 36.7658 129.986 33.647C129.566 32.9789 129.158 32.3032 128.74 31.6218C129.279 30.761 129.795 29.9345 130.316 29.1119C130.854 28.2625 131.403 27.4226 131.939 26.5733C132.458 25.7487 132.964 24.9165 133.481 24.09C134.015 23.2387 134.561 22.3951 135.091 21.5438C135.601 20.7269 136.162 19.9405 136.635 18.9995C136.429 18.9899 136.315 18.9632 136.211 18.9842C135.944 19.0376 135.682 19.1197 135.417 19.1789C133.674 19.5683 131.93 19.9595 130.185 20.3356C129.774 20.4234 129.484 20.6142 129.264 20.9922C128.741 21.8854 128.175 22.752 127.629 23.6319C126.442 25.5464 125.256 27.4627 124.066 29.3753C123.977 29.5184 123.917 29.7246 123.632 29.6673C123.678 28.6958 123.934 27.7548 124.076 26.7966C124.223 25.8021 124.396 24.8115 124.563 23.819C124.724 22.857 124.9 21.8988 125.055 20.9368C125.216 19.9443 125.351 18.9479 125.512 17.9554C125.669 16.9934 125.847 16.0333 126.012 15.0732C126.18 14.0807 126.343 13.0882 126.51 12.0956C126.671 11.1336 126.838 10.1716 126.997 9.20774C127.162 8.2152 127.33 7.22267 127.484 6.22823C127.631 5.27769 127.847 4.33669 127.906 3.3976C127.813 3.35561 127.787 3.33652 127.76 3.33461C127.671 3.33079 127.576 3.31552 127.491 3.33461C119.078 5.22997 110.666 7.12914 102.253 9.02832C102.224 9.03404 102.19 9.05122 102.177 9.07413C102.164 9.09703 102.173 9.1333 102.173 9.2211C102.266 9.286 102.376 9.38143 102.503 9.45015C104.481 10.5133 106.464 11.5612 108.432 12.6415C108.838 12.8648 109.222 12.9145 109.65 12.8133C111.418 12.3915 113.183 11.9697 114.951 11.5516C116.925 11.084 118.898 10.6164 120.876 10.1583C121.005 10.1277 121.151 10.1735 121.314 10.185C121.302 10.9867 121.119 11.6948 121.001 12.4106C120.503 15.4512 119.999 18.4898 119.508 21.5323C119.042 24.4221 118.592 27.3138 118.129 30.2036C117.783 32.3719 117.43 34.5383 117.086 36.7047C116.798 38.5123 116.513 40.3199 116.235 42.1293C116.19 42.4233 116.099 42.721 116.222 43.0264C116.332 43.0474 116.423 43.0913 116.5 43.076C118.124 42.7229 119.747 42.3603 121.408 41.9919C121.505 41.5701 121.613 41.1921 121.679 40.8066C122.085 38.4302 122.477 36.052 122.88 33.6775C122.914 33.4752 122.992 33.2824 123.1 32.9102L123.098 32.9026ZM91.0819 23.1128C90.8698 23.4907 90.5553 23.6606 90.2389 23.8285C89.3562 24.3 88.4848 24.7943 87.5907 25.241C87.0034 25.5349 86.5715 25.9434 86.221 26.5103C84.1695 29.8219 82.0819 33.1125 80.019 36.4165C76.844 41.5033 73.6748 46.5957 70.5131 51.692C69.1644 53.8641 67.8421 56.0534 66.5123 58.2389C66.391 58.4374 66.194 58.6206 66.285 58.8955C66.4971 59.0997 66.7301 59.0826 66.9537 58.9509C67.1355 58.844 67.3041 58.7123 67.4651 58.5748C67.8573 58.2389 68.238 57.8896 68.6321 57.5556C71.3808 55.2079 74.1276 52.8582 76.8876 50.5239C77.3119 50.165 77.6548 49.7508 77.9503 49.2851C79.7405 46.4564 81.5363 43.6296 83.3303 40.8008C83.9327 39.8503 84.5408 38.9017 85.128 37.9397C85.3496 37.577 85.6414 37.3518 86.0562 37.2812C86.1756 37.2602 86.2911 37.2258 86.4105 37.201C88.0661 36.846 89.7218 36.4833 91.3812 36.1398C91.6957 36.0749 92.0177 35.9718 92.3796 36.0424C92.4818 36.4032 92.3777 36.7315 92.3303 37.0521C92.2451 37.6247 92.1219 38.1916 92.0272 38.7623C91.4873 41.9785 90.9493 45.1947 90.4189 48.4109C90.3867 48.6075 90.4151 48.8156 90.4151 49.0618C90.65 49.0484 90.8319 49.0618 91.0024 49.0255C92.4781 48.6877 93.95 48.3346 95.4257 47.9948C95.725 47.9261 95.9106 47.7677 95.9731 47.4623C96.0091 47.2829 96.0659 47.1073 96.0963 46.9278C96.4751 44.7061 96.854 42.4824 97.2291 40.2588C97.8106 36.8021 98.3922 33.3454 98.97 29.8887C99.7239 25.3784 100.476 20.8681 101.222 16.3559C101.26 16.1268 101.228 15.8863 101.228 15.6153C101.05 15.6382 100.933 15.6439 100.819 15.6707C99.9342 15.8692 99.0495 16.0715 98.1649 16.2738C94.3004 17.1556 90.436 18.0337 86.5734 18.9212C85.4822 19.1712 84.3949 19.448 83.3075 19.7171C83.1711 19.7515 82.9988 19.742 82.9268 20.013C83.3947 20.7288 83.9762 21.4274 84.5502 22.1259C85.1242 22.8245 85.6054 23.609 86.2987 24.2179C87.9108 23.8457 89.4983 23.4792 91.0838 23.1128H91.0819ZM64.7733 55.916C64.8737 55.7709 64.9779 55.6297 65.0726 55.4827C66.4043 53.4079 67.7417 51.3389 69.0621 49.2565C72.3696 44.038 75.6658 38.8158 78.9695 33.5954C79.9621 32.0265 80.9642 30.4651 81.9493 28.8904C82.1198 28.6175 82.3698 28.3675 82.3585 27.9437C81.0002 27.1077 79.5814 26.3633 78.1701 25.6017C78.028 25.5254 77.8158 25.5235 77.651 25.5597C77.0297 25.6914 76.4159 25.8537 75.7984 25.9987C74.4458 26.3194 73.0932 26.6439 71.7369 26.9512C71.1724 27.0791 70.7897 27.3558 70.5226 27.9113C69.8766 29.255 69.1606 30.5644 68.4635 31.8833C68.4047 31.994 68.3744 32.1906 68.1168 32.1047C68.1433 31.2305 68.3782 30.3754 68.5013 29.5089C68.6264 28.6347 68.7722 27.7624 68.9105 26.8901C69.0488 26.0178 69.1606 25.1398 69.3368 24.2733C69.511 23.4162 69.5129 22.523 69.8236 21.6927C70.0301 21.6297 70.1987 21.5705 70.3749 21.5285C72.4946 21.0189 74.6144 20.5112 76.7342 20.0073C78.0583 19.6923 79.3844 19.3812 80.7123 19.0815C81.2029 18.9708 81.5818 18.7494 81.8981 18.3295C83.1806 16.6307 84.4991 14.9587 85.8005 13.2752C85.882 13.1702 85.9312 13.0385 86.0032 12.9049C85.8838 12.8801 85.8213 12.8477 85.7683 12.8591C83.4648 13.3726 81.1631 13.8898 78.8615 14.409C75.2623 15.2221 71.663 16.0409 68.0619 16.856C66.3816 17.2358 64.6975 17.6042 63.0191 17.9878C62.8638 18.0241 62.7217 18.1215 62.5228 18.215C62.7179 18.4631 62.86 18.6578 63.0172 18.8391C63.434 19.3239 63.8488 19.8088 64.2808 20.2783C64.4872 20.5035 64.546 20.7421 64.4929 21.0322C64.3831 21.6316 64.2713 22.2309 64.1728 22.8322C63.7162 25.659 63.2692 28.4858 62.8107 31.3126C62.4546 33.5095 62.0871 35.7027 61.7291 37.8977C61.443 39.6442 61.1646 41.3906 60.8823 43.1371C60.6038 44.8511 60.3216 46.5652 60.0526 48.283C60.0223 48.4777 60.0677 48.6858 60.081 48.9644C60.5015 48.8805 60.8539 48.8194 61.2024 48.7392C62.3845 48.472 63.5628 48.1971 64.7449 47.9299C64.9495 47.8841 65.1654 47.8192 65.3719 48.1093C65.2128 50.6556 64.7998 53.2438 64.7752 55.9236L64.7733 55.916ZM112.103 20.0302C112.109 20.181 112.134 20.3279 112.117 20.4711C112.083 20.7421 112.035 21.0132 111.977 21.2804C111.906 21.603 111.952 21.8568 112.225 22.0935C113.555 23.2483 114.867 24.424 116.191 25.5865C116.271 25.6571 116.387 25.6876 116.546 25.7659C116.62 25.4777 116.693 25.2505 116.733 25.0177C116.826 24.4775 116.894 23.9316 116.985 23.3914C117.536 20.1122 118.093 16.835 118.641 13.5558C118.667 13.3916 118.62 13.2141 118.607 13.0118C118.374 13.0404 118.194 13.0481 118.019 13.0863C117.192 13.2695 116.368 13.4623 115.542 13.6512C111.647 14.5445 107.75 15.4359 103.857 16.333C103.715 16.3654 103.585 16.4456 103.429 16.5105C103.369 16.793 103.299 17.0583 103.255 17.3255C103.018 18.7399 102.791 20.1542 102.558 21.5686C101.891 25.5998 101.219 29.631 100.561 33.6641C100.074 36.6437 99.6065 39.6251 99.1329 42.6046C98.951 43.7498 98.7654 44.8931 98.5949 46.0384C98.5475 46.359 98.4339 46.6969 98.6782 47.0443C98.8734 47.0214 99.0836 47.0175 99.2844 46.9736C103.391 46.0727 107.5 45.1699 111.605 44.2614C112.107 44.1506 112.604 44.0094 113.106 43.893C113.369 43.8319 113.536 43.6868 113.602 43.4215C113.638 43.2726 113.689 43.1276 113.714 42.9787C113.945 41.6579 114.176 40.3351 114.398 39.0124C114.42 38.8769 114.394 38.7318 114.39 38.5333C113.998 38.6096 113.672 38.665 113.352 38.7394C110.668 39.3579 107.987 39.982 105.301 40.5966C105.14 40.6329 104.964 40.6023 104.784 40.6023C104.77 40.463 104.742 40.3733 104.755 40.2893C105.816 34.0096 106.881 27.728 107.949 21.4484C107.979 21.2708 108.051 21.101 108.11 20.9101C108.313 20.8299 108.502 20.7288 108.703 20.681C109.734 20.4348 110.768 20.2 111.802 19.9691C111.88 19.9519 111.969 19.9996 112.105 20.0264L112.103 20.0302ZM157.774 32.5781C157.56 32.5991 157.382 32.5972 157.213 32.6353C156.8 32.7289 156.391 32.8453 155.98 32.9427C153.152 33.6107 150.324 34.2788 147.494 34.9392C145.696 35.3572 143.896 35.7618 142.095 36.1627C141.966 36.1913 141.824 36.1531 141.686 36.1474C141.773 34.8189 142.197 32.5304 142.483 31.8566C144.099 31.4691 145.741 31.0759 147.397 30.6789C147.797 28.9668 148.03 27.2776 148.346 25.6055C148.361 25.5273 148.306 25.4376 148.276 25.3173C148.149 25.3307 148.033 25.3307 147.924 25.3555C146.569 25.6704 145.215 25.9873 143.86 26.3041C143.688 26.3442 143.51 26.4187 143.317 26.2068C143.495 25.1436 143.574 24.027 143.906 22.9448C146.73 22.229 149.543 21.6659 152.33 20.9254C152.33 20.7211 152.356 20.5665 152.326 20.4253C152.025 19.0262 151.718 17.629 151.404 16.2337C151.366 16.0677 151.269 15.9131 151.201 15.7604C151.059 15.7604 150.966 15.7432 150.881 15.7623C147.134 16.6021 143.389 17.4439 139.642 18.2894C139.528 18.3161 139.422 18.3772 139.283 18.4345C139.227 18.6712 139.158 18.9021 139.119 19.1388C138.683 21.6927 138.251 24.2484 137.817 26.8042C137.762 27.1306 137.762 27.4761 137.535 27.7605C136.98 28.0563 136.287 27.9609 135.699 28.3655C135.749 28.6652 135.783 28.963 135.845 29.255C136.092 30.385 136.334 31.5187 136.605 32.643C136.707 33.0705 136.713 33.479 136.635 33.9085C136.423 35.0785 136.249 36.2543 136.027 37.4205C135.912 38.0275 136.006 38.5428 136.379 39.0506C136.938 39.8102 137.435 40.6138 137.967 41.3925C138.1 41.5872 138.272 41.7552 138.444 41.9594C139.208 41.7953 139.947 41.6445 140.682 41.4784C143.985 40.7321 147.289 39.9839 150.591 39.2319C152.421 38.8158 154.251 38.392 156.081 37.9721C156.374 37.9053 156.683 37.8786 156.977 37.577C157.246 36.0959 157.532 34.5402 157.81 32.9808C157.829 32.872 157.791 32.7518 157.774 32.5838V32.5781ZM180.29 9.02832C179.894 9.10658 179.565 9.16002 179.243 9.23446C176.5 9.87006 173.762 10.519 171.018 11.1413C167.568 11.9258 164.115 12.6854 160.665 13.4604C158.598 13.9261 156.533 14.3995 154.47 14.8804C154.156 14.953 153.798 14.9358 153.525 15.266C153.571 16.0887 153.804 16.9113 154.006 17.7283C154.215 18.57 154.243 19.4652 154.662 20.2745C154.88 20.2401 155.06 20.223 155.234 20.1829C157.5 19.6484 159.765 19.1083 162.031 18.5738C162.23 18.5261 162.444 18.4478 162.698 18.7189C162.374 20.723 161.982 22.7806 161.627 24.844C161.265 26.9474 160.904 29.0489 160.532 31.1504C160.167 33.2137 159.799 35.277 159.479 37.2888C159.574 37.4052 159.604 37.4625 159.651 37.4969C160.953 38.4417 162.252 39.3884 163.56 40.3256C163.669 40.4038 163.813 40.4344 163.974 40.4993C164.031 40.3198 164.079 40.2091 164.101 40.0946C164.27 39.2281 164.438 38.3615 164.598 37.4911C165.069 34.9144 165.533 32.3376 166.003 29.7608C166.375 27.7223 166.75 25.6857 167.121 23.6472C167.35 22.3874 167.579 21.1277 167.797 19.866C167.831 19.6675 167.803 19.4576 167.803 19.2571C166.878 18.7342 165.842 18.57 164.812 17.9592C166.109 17.5966 167.291 17.3732 168.451 17.0774C169.623 16.7796 170.809 16.5353 171.987 16.2566C173.166 15.978 174.342 15.6897 175.518 15.4015C176.687 15.1152 177.871 14.8881 179.038 14.5292C179.489 12.777 179.93 11.0706 180.362 9.36044C180.381 9.28409 180.33 9.19056 180.294 9.02259L180.29 9.02832Z" fill="#0D0D0D"/>
<path d="M54.9885 31.23C54.9033 31.2281 54.7782 31.188 54.7385 31.23C54.5945 31.3827 54.4657 31.5545 54.3539 31.7358C52.6414 34.5073 50.9346 37.2807 49.224 40.0521C47.6252 42.6423 46.0226 45.2324 44.4219 47.8206C44.3253 47.9752 44.2173 48.1241 44.1282 48.2825C43.9331 48.6261 43.6376 48.7864 43.2568 48.8704C41.1011 49.3476 38.9472 49.8438 36.7933 50.3306C34.0769 50.9452 31.3604 51.5617 28.642 52.1725C28.4412 52.2183 28.2328 52.2278 27.96 52.2641C27.9828 51.117 28.2574 50.0576 28.4052 48.9849C28.553 47.897 28.7556 46.8185 28.9337 45.7344C29.1099 44.6617 29.3429 43.5985 29.4319 42.4418C28.6742 42.4628 28.0472 42.6728 27.4163 42.8427C27.1436 42.9171 27.0886 43.1748 27.0451 43.421C26.8992 44.2322 26.7476 45.0415 26.6056 45.8527C26.2078 48.105 25.8081 50.3573 25.4235 52.6134C25.3515 53.0295 25.1715 53.3387 24.8381 53.6002C23.6428 54.5355 22.4607 55.4917 21.2768 56.4404C20.8733 56.763 20.4793 57.097 20.0758 57.4176C19.892 57.5646 19.6912 57.6906 19.5113 57.8147C19.4468 57.7574 19.4203 57.7402 19.4071 57.7173C19.3919 57.6925 19.3805 57.66 19.3843 57.6333C20.0871 53.3597 20.7937 49.0861 21.4965 44.8125C21.5117 44.7228 21.5136 44.6311 21.5193 44.5395C21.5193 44.5109 21.5117 44.4803 21.506 44.4441C21.309 44.2093 21.0627 44.3219 20.8373 44.3735C19.2157 44.7437 17.5942 45.1217 15.9726 45.4958C15.3248 45.6466 14.675 45.7916 14.029 45.9501C13.6767 46.036 13.3849 45.9711 13.1122 45.7153C11.8051 44.488 10.4923 43.2664 9.17193 42.0505C8.9124 41.812 8.88399 41.5428 8.93703 41.2222C9.13404 40.0502 9.31969 38.8763 9.51291 37.7025C9.90125 35.3567 10.2953 33.0109 10.6798 30.665C10.7177 30.4322 10.7101 30.1917 10.7234 29.9283C10.0812 29.745 9.48071 29.9016 8.88588 29.913C8.24938 29.9245 7.61478 29.9798 6.98017 29.9951C6.38156 30.0104 5.78295 29.9989 5.17676 29.9989C5.20707 29.9264 5.21464 29.8424 5.25064 29.829C7.93871 28.806 10.623 27.7714 13.3224 26.7751C14.4515 26.359 15.571 25.9047 16.8099 25.544C16.8137 25.7673 16.8383 25.9085 16.8156 26.044C16.5087 27.9069 16.1924 29.7699 15.8836 31.6347C15.6146 33.2571 15.3551 34.8833 15.088 36.5057C14.9345 37.4372 14.7697 38.3686 14.6163 39.3001C14.5575 39.657 14.5197 40.0178 14.4685 40.3919C14.7981 40.5999 15.0899 40.4739 15.3721 40.411C16.4064 40.18 17.4369 39.9433 18.4694 39.7028C19.5018 39.4623 20.5323 39.218 21.5628 38.9718C21.8546 38.9012 22.1425 38.8153 22.4702 38.7256C23.1067 35.3586 23.5519 31.9782 24.2092 28.5998C25.9766 28.0749 27.7611 27.7619 29.4869 27.3286C29.7634 27.5557 29.6725 27.8134 29.6384 28.0386C29.502 28.9415 29.3448 29.8424 29.1932 30.7433C28.8636 32.6959 28.5283 34.6485 28.2025 36.6031C28.1684 36.8054 28.1987 37.0192 28.1987 37.2616C28.5226 37.3933 28.8087 37.2425 29.0872 37.1795C29.4982 37.086 29.9567 37.0325 30.2863 36.8054C30.6576 36.5496 30.5288 36.0152 30.5988 35.6067C31.0194 33.1445 31.4058 30.6746 31.8074 28.2085C31.8813 27.76 31.9741 27.3133 32.067 26.8171C32.2848 26.7426 32.5046 26.6453 32.7338 26.5957C35.3309 26.0154 37.9318 25.4466 40.5309 24.8683C41.5065 24.6507 42.4764 24.4159 43.4501 24.1926C43.594 24.1601 43.7418 24.1487 43.9274 24.122C44.0013 24.2651 44.0979 24.3892 44.1301 24.5266C44.4351 25.8646 44.7325 27.2045 45.0262 28.5445C45.0451 28.6304 45.0281 28.7239 45.0281 28.8747C44.8651 28.9491 44.6871 29.0636 44.492 29.1133C42.9632 29.4931 41.4307 29.8596 39.902 30.2337C38.8752 30.4856 37.8485 30.7414 36.8407 30.9914C36.5471 31.7988 36.0849 34.5531 36.0962 35.4006C36.2231 35.5361 36.369 35.4712 36.513 35.4387C38.1042 35.0704 39.6955 34.7001 41.2886 34.3374C41.5463 34.2782 41.8115 34.2496 42.1562 34.1943C42.1202 34.3851 42.1278 34.5092 42.0767 34.5913C40.8946 36.4733 39.7068 38.3495 38.5267 40.2182C37.3825 40.5961 36.1928 40.6992 35.0373 41.1115C34.8043 42.5907 34.4557 44.0356 34.308 45.5225C34.6167 45.7172 34.8782 45.616 35.1358 45.555C36.4315 45.2515 37.7292 44.9499 39.0211 44.635C39.5477 44.5071 40.0649 44.3429 40.5858 44.1959C40.8643 43.7608 41.1522 43.3313 41.4212 42.8904C44.2987 38.1911 47.1725 33.4899 50.0443 28.7869C50.2299 28.4834 50.4667 28.199 50.5387 27.7562C49.44 27.8172 48.4549 28.2257 47.3979 28.3669C47.3107 28.178 47.2103 28.0234 47.1649 27.8535C46.7993 26.5365 46.3768 24.2785 46.3674 23.6371C46.5833 23.3909 46.9035 23.3947 47.1895 23.3298C49.0479 22.9023 50.9081 22.4824 52.7683 22.0663C55.248 21.5108 57.7277 20.9592 60.2074 20.4076C60.3249 20.3809 60.4423 20.3484 60.5617 20.3255C60.7511 20.2912 60.9216 20.3351 61.058 20.482C61.0997 20.5259 61.1394 20.5717 61.1811 20.6175C61.9786 21.4574 61.99 21.4937 61.8006 22.6446C61.3118 25.5898 60.8326 28.5368 60.3306 31.4801C59.6088 35.7193 58.8719 39.9548 58.1369 44.1921C57.8547 45.8145 57.5478 47.4331 57.2788 49.0575C57.2106 49.4736 57.0571 49.7045 56.6252 49.7942C55.2916 50.071 53.9675 50.3878 52.6376 50.676C52.4084 50.7257 52.1678 50.718 51.9291 50.7371C51.7814 50.426 51.8818 50.1569 51.9235 49.8973C52.2341 47.9389 52.5486 45.9806 52.8706 44.0242C53.2268 41.8578 53.5943 39.6933 53.9523 37.5269C54.3009 35.4216 54.6437 33.3163 54.9847 31.209C54.9734 31.1823 54.9696 31.1575 54.9582 31.1346C54.9525 31.1231 54.9393 31.1155 54.9298 31.1079C54.9544 31.1479 54.979 31.1861 55.0018 31.2262L54.9885 31.23Z" fill="white"/>
<path d="M123.098 32.9025C122.99 33.2747 122.912 33.4694 122.878 33.6698C122.475 36.0461 122.081 38.4244 121.677 40.7989C121.611 41.1844 121.505 41.5623 121.406 41.9842C119.743 42.3526 118.122 42.7133 116.498 43.0683C116.421 43.0855 116.328 43.0397 116.22 43.0187C116.095 42.7133 116.188 42.4155 116.233 42.1216C116.513 40.3121 116.796 38.5046 117.084 36.697C117.428 34.5287 117.783 32.3623 118.127 30.1959C118.588 27.3061 119.039 24.4144 119.506 21.5246C119.997 18.4821 120.501 15.4434 120.999 12.4029C121.117 11.6871 121.298 10.979 121.312 10.1773C121.149 10.1658 121.003 10.12 120.874 10.1506C118.898 10.6087 116.923 11.0763 114.949 11.5439C113.181 11.9619 111.416 12.3857 109.648 12.8056C109.22 12.9068 108.836 12.8571 108.43 12.6338C106.464 11.5535 104.479 10.5056 102.501 9.44243C102.376 9.37563 102.264 9.27828 102.171 9.21339C102.171 9.12559 102.162 9.08741 102.175 9.06642C102.188 9.04351 102.222 9.02824 102.251 9.02061C110.664 7.12143 119.076 5.22226 127.489 3.3269C127.574 3.30781 127.669 3.32308 127.758 3.3269C127.785 3.3269 127.811 3.34981 127.904 3.38989C127.845 4.32898 127.627 5.27189 127.482 6.22052C127.328 7.21496 127.16 8.20749 126.995 9.20003C126.834 10.1639 126.669 11.1259 126.508 12.0879C126.341 13.0805 126.178 14.073 126.01 15.0655C125.845 16.0275 125.667 16.9857 125.51 17.9477C125.349 18.9402 125.212 19.9366 125.053 20.9291C124.898 21.8911 124.722 22.8493 124.561 23.8113C124.394 24.8019 124.221 25.7944 124.074 26.7889C123.932 27.747 123.676 28.6899 123.63 29.6596C123.915 29.7168 123.975 29.5107 124.064 29.3675C125.254 27.455 126.44 25.5387 127.627 23.6242C128.173 22.7443 128.739 21.8777 129.262 20.9845C129.484 20.6084 129.772 20.4176 130.183 20.3279C131.93 19.9499 133.672 19.5586 135.415 19.1712C135.68 19.112 135.942 19.0299 136.209 18.9765C136.313 18.9555 136.429 18.9822 136.633 18.9918C136.158 19.9327 135.597 20.7191 135.089 21.5361C134.557 22.3874 134.011 23.231 133.479 24.0823C132.962 24.9069 132.456 25.741 131.937 26.5655C131.401 27.4149 130.852 28.2567 130.314 29.1041C129.793 29.9268 129.277 30.7533 128.738 31.6141C129.156 32.2955 129.565 32.9712 129.984 33.6393C131.943 36.76 133.905 39.8769 135.866 42.9958C135.915 43.074 135.951 43.1599 136.008 43.2306C136.434 43.7593 136.529 44.3605 136.491 45.0286C136.406 46.5212 136.379 48.0176 136.307 49.5102C136.279 50.0886 136.196 50.6631 136.129 51.2395C136.105 51.459 136.029 51.6614 135.792 51.7377C135.531 51.8217 135.305 51.7339 135.139 51.5354C134.943 51.3025 134.765 51.0544 134.601 50.7986C133.047 48.3956 131.488 45.9944 129.948 43.5818C127.819 40.2453 125.705 36.8993 123.581 33.5591C123.469 33.3835 123.337 33.2232 123.096 32.8949L123.098 32.9025Z" fill="white"/>
<path d="M91.0819 23.1127C89.4963 23.4792 87.9089 23.8456 86.2968 24.2178C85.6016 23.6089 85.1223 22.8245 84.5483 22.1259C83.9743 21.4292 83.3928 20.7287 82.9249 20.0129C82.9988 19.7419 83.1692 19.7495 83.3056 19.7171C84.393 19.4479 85.4803 19.1731 86.5715 18.9211C90.434 18.0336 94.2985 17.1556 98.163 16.2737C99.0476 16.0714 99.9323 15.8691 100.817 15.6706C100.931 15.6458 101.048 15.6381 101.226 15.6152C101.226 15.8863 101.258 16.1268 101.22 16.3558C100.474 20.868 99.722 25.3783 98.9681 29.8886C98.3903 33.3453 97.8087 36.802 97.2272 40.2587C96.8521 42.4823 96.4732 44.7041 96.0943 46.9278C96.064 47.1072 96.0072 47.2828 95.9712 47.4622C95.9087 47.7676 95.7212 47.926 95.4237 47.9947C93.9481 48.3345 92.4762 48.6857 91.0005 49.0254C90.83 49.0636 90.6481 49.0483 90.4132 49.0617C90.4132 48.8155 90.3848 48.6074 90.417 48.4108C90.9474 45.1927 91.4854 41.9765 92.0253 38.7623C92.1219 38.1916 92.245 37.6247 92.3284 37.052C92.3758 36.7314 92.4799 36.4031 92.3776 36.0423C92.0158 35.9717 91.6938 36.0748 91.3793 36.1397C89.7199 36.4832 88.0642 36.844 86.4086 37.2009C86.2911 37.2257 86.1737 37.2601 86.0543 37.2811C85.6395 37.3517 85.3477 37.5769 85.1261 37.9396C84.5389 38.8997 83.9308 39.8483 83.3284 40.8008C81.5363 43.6295 79.7405 46.4544 77.9484 49.285C77.6529 49.7507 77.3119 50.163 76.8857 50.5238C74.1275 52.8601 71.3807 55.2097 68.6302 57.5555C68.238 57.8914 67.8573 58.2407 67.4632 58.5748C67.3022 58.7122 67.1336 58.8439 66.9518 58.9508C66.7282 59.0825 66.4933 59.0996 66.2831 58.8954C66.1921 58.6187 66.391 58.4354 66.5104 58.2388C67.8402 56.0533 69.1625 53.8659 70.5112 51.6919C73.6729 46.5956 76.8421 41.5051 80.0171 36.4164C82.08 33.1105 84.1657 29.8218 86.2191 26.5102C86.5696 25.9452 86.9996 25.5348 87.5887 25.2409C88.4829 24.7943 89.3543 24.2999 90.237 23.8284C90.5534 23.6586 90.8678 23.4906 91.08 23.1127H91.0819ZM94.7039 23.1909C94.4917 23.2978 94.4179 23.3093 94.3913 23.3513C92.7792 25.8899 91.1709 28.4304 89.5645 30.9728C89.5191 31.0434 89.5191 31.1427 89.4963 31.2266C89.5627 31.2553 89.6176 31.2992 89.6668 31.2954C89.8165 31.282 89.9624 31.24 90.112 31.2247C90.614 31.1732 91.0895 30.9136 91.6578 31.0224C91.8093 31.6446 91.9533 32.2631 92.1105 32.8777C92.264 33.4808 92.2753 34.1279 92.6542 34.773C92.73 34.5421 92.7925 34.4047 92.8171 34.2634C93.4423 30.6101 94.0617 26.9549 94.702 23.1928L94.7039 23.1909Z" fill="white"/>
<path d="M64.7729 55.9155C64.7994 53.2357 65.2104 50.6474 65.3696 48.1012C65.1631 47.813 64.9471 47.876 64.7425 47.9218C63.5605 48.189 62.3822 48.4639 61.2001 48.7311C60.8516 48.8093 60.4992 48.8723 60.0787 48.9563C60.0654 48.6776 60.02 48.4715 60.0503 48.2749C60.3193 46.559 60.6015 44.8449 60.88 43.129C61.1622 41.3825 61.4407 39.636 61.7268 37.8896C62.0848 35.6945 62.4542 33.4995 62.8084 31.3045C63.2669 28.4777 63.7139 25.6509 64.1705 22.8241C64.2671 22.2228 64.3788 21.6235 64.4906 21.0241C64.5436 20.734 64.4849 20.4954 64.2784 20.2702C63.8465 19.8006 63.4317 19.3139 63.0149 18.831C62.8577 18.6497 62.7175 18.455 62.5205 18.2069C62.7194 18.1133 62.8615 18.016 63.0168 17.9797C64.6971 17.5961 66.3793 17.2277 68.0595 16.8479C71.6588 16.0347 75.258 15.2159 78.8592 14.4009C81.1608 13.8798 83.4624 13.3644 85.766 12.851C85.819 12.8396 85.8815 12.872 86.0009 12.8968C85.9289 13.0323 85.8796 13.1621 85.7982 13.2671C84.4968 14.9525 83.1783 16.6226 81.8958 18.3214C81.5795 18.7413 81.1987 18.9627 80.71 19.0734C79.382 19.3731 78.056 19.6861 76.7318 19.9992C74.6102 20.5031 72.4904 21.0108 70.3725 21.5204C70.1983 21.5624 70.0278 21.6235 69.8213 21.6846C69.5087 22.5129 69.5087 23.4081 69.3344 24.2651C69.1583 25.1298 69.0465 26.0078 68.9082 26.882C68.7699 27.7543 68.6241 28.6266 68.499 29.5008C68.374 30.3692 68.141 31.2224 68.1145 32.0966C68.3721 32.1825 68.4024 31.9859 68.4611 31.8752C69.1583 30.5563 69.8743 29.2469 70.5203 27.9032C70.7874 27.3477 71.1701 27.071 71.7346 26.9431C73.0909 26.6358 74.4435 26.3113 75.796 25.9906C76.4136 25.8436 77.0293 25.6814 77.6487 25.5516C77.8135 25.5173 78.0257 25.5173 78.1678 25.5936C79.5772 26.3552 80.9979 27.0996 82.3561 27.9356C82.3675 28.3593 82.1175 28.6094 81.947 28.8823C80.9619 30.4551 79.9598 32.0184 78.9672 33.5873C75.6653 38.8077 72.3673 44.0318 69.0598 49.2483C67.7394 51.3308 66.402 53.3998 65.0703 55.4746C64.9756 55.6216 64.8714 55.7628 64.771 55.9079L64.7729 55.9155ZM66.0515 44.3239C66.1652 44.2933 66.2504 44.299 66.2732 44.2628C68.7358 40.2831 71.1966 36.3015 73.6516 32.318C73.7426 32.171 73.7937 31.9993 73.8619 31.8447C73.7975 31.8027 73.7691 31.7664 73.7483 31.7702C71.9259 32.1901 70.1016 32.612 68.2793 33.0338C68.052 33.0872 67.9042 33.2247 67.8474 33.4518C67.8114 33.5988 67.7868 33.7496 67.7602 33.9003C67.19 37.2311 66.6198 40.5637 66.0534 43.8944C66.0307 44.028 66.0496 44.1692 66.0496 44.3239H66.0515Z" fill="white"/>
<path d="M112.105 20.0301C111.971 20.0034 111.88 19.9556 111.802 19.9728C110.768 20.2038 109.734 20.4386 108.703 20.6848C108.5 20.7325 108.311 20.8337 108.11 20.9138C108.052 21.1047 107.98 21.2746 107.949 21.4521C106.881 27.7318 105.816 34.0115 104.755 40.293C104.742 40.377 104.771 40.4667 104.784 40.6061C104.964 40.6061 105.14 40.6385 105.301 40.6003C107.985 39.9857 110.668 39.3616 113.352 38.7432C113.672 38.6687 113.998 38.6153 114.39 38.537C114.394 38.7355 114.42 38.8806 114.398 39.0161C114.174 40.3389 113.945 41.6616 113.714 42.9824C113.687 43.1313 113.638 43.2783 113.602 43.4252C113.538 43.6906 113.369 43.8356 113.106 43.8967C112.604 44.0131 112.107 44.1544 111.605 44.2651C107.498 45.1717 103.391 46.0765 99.2845 46.9774C99.0837 47.0213 98.8734 47.027 98.6783 47.048C98.432 46.7006 98.5476 46.3647 98.5949 46.0421C98.7654 44.8969 98.9492 43.7516 99.1329 42.6083C99.6084 39.6269 100.076 36.6455 100.561 33.6679C101.219 29.6348 101.893 25.6035 102.558 21.5723C102.791 20.158 103.02 18.7436 103.255 17.3293C103.3 17.0601 103.369 16.7967 103.429 16.5142C103.585 16.4493 103.715 16.3692 103.857 16.3367C107.752 15.4396 111.647 14.5482 115.542 13.655C116.368 13.466 117.194 13.2732 118.02 13.09C118.194 13.0518 118.374 13.0442 118.607 13.0155C118.622 13.2198 118.669 13.3954 118.641 13.5595C118.093 16.8387 117.536 20.116 116.985 23.3952C116.894 23.9353 116.826 24.4812 116.733 25.0214C116.693 25.2542 116.62 25.4814 116.546 25.7696C116.387 25.6913 116.271 25.6608 116.191 25.5902C114.869 24.4259 113.555 23.252 112.225 22.0972C111.952 21.8605 111.906 21.6067 111.977 21.2841C112.035 21.0169 112.083 20.7459 112.117 20.4748C112.134 20.3317 112.109 20.1847 112.104 20.0339L112.105 20.0301Z" fill="white"/>
<path d="M157.776 32.5757C157.793 32.7436 157.831 32.862 157.812 32.9727C157.533 34.5302 157.249 36.0877 156.978 37.5689C156.685 37.8704 156.376 37.8953 156.082 37.964C154.252 38.3839 152.424 38.8076 150.593 39.2237C147.289 39.9758 143.987 40.724 140.683 41.4703C139.948 41.6363 139.211 41.7871 138.446 41.9513C138.274 41.749 138.101 41.581 137.969 41.3844C137.436 40.6056 136.94 39.8021 136.381 39.0424C136.008 38.5347 135.913 38.0212 136.029 37.4123C136.251 36.2442 136.425 35.0684 136.637 33.9003C136.715 33.4708 136.709 33.0624 136.607 32.6348C136.336 31.5106 136.093 30.3787 135.847 29.2469C135.785 28.9548 135.749 28.6571 135.701 28.3574C136.288 27.9527 136.98 28.0501 137.537 27.7523C137.766 27.4679 137.764 27.1225 137.819 26.7961C138.253 24.2403 138.685 21.6864 139.12 19.1306C139.16 18.894 139.228 18.663 139.285 18.4263C139.424 18.3691 139.53 18.308 139.643 18.2813C143.388 17.4357 147.135 16.594 150.882 15.7541C150.968 15.735 151.061 15.7522 151.203 15.7522C151.269 15.9049 151.367 16.0576 151.405 16.2256C151.72 17.6209 152.029 19.018 152.328 20.4171C152.358 20.5584 152.332 20.713 152.332 20.9172C149.545 21.6578 146.732 22.219 143.907 22.9366C143.578 24.0189 143.496 25.1374 143.318 26.1986C143.512 26.4105 143.69 26.3361 143.862 26.296C145.216 25.981 146.571 25.6623 147.925 25.3473C148.035 25.3225 148.151 25.3225 148.278 25.3092C148.308 25.4294 148.363 25.5191 148.348 25.5974C148.031 27.2713 147.798 28.9605 147.399 30.6708C145.743 31.0678 144.101 31.461 142.485 31.8484C142.199 32.5241 141.774 34.8108 141.687 36.1392C141.826 36.1469 141.968 36.1831 142.096 36.1545C143.898 35.7518 145.698 35.349 147.495 34.931C150.326 34.2725 153.154 33.6025 155.982 32.9345C156.395 32.8372 156.802 32.7207 157.215 32.6272C157.384 32.589 157.562 32.5909 157.776 32.5699V32.5757Z" fill="white"/>
<path d="M180.292 9.02832C180.328 9.19629 180.38 9.28981 180.361 9.36616C179.927 11.0764 179.487 12.7828 179.036 14.535C177.87 14.8938 176.686 15.1209 175.517 15.4073C174.34 15.6955 173.164 15.9856 171.986 16.2624C170.807 16.541 169.622 16.7834 168.449 17.0831C167.288 17.379 166.108 17.6023 164.81 17.9649C165.84 18.5757 166.879 18.7399 167.801 19.2629C167.801 19.4633 167.831 19.6732 167.795 19.8717C167.578 21.1334 167.348 22.3932 167.119 23.6529C166.748 25.6914 166.373 27.728 166.001 29.7665C165.532 32.3433 165.068 34.9201 164.596 37.4969C164.437 38.3653 164.268 39.2319 164.1 40.1003C164.077 40.2149 164.029 40.3256 163.973 40.505C163.812 40.4382 163.668 40.4096 163.558 40.3313C162.253 39.3922 160.951 38.4474 159.65 37.5026C159.602 37.4682 159.572 37.411 159.477 37.2945C159.798 35.2846 160.165 33.2213 160.531 31.1561C160.902 29.0546 161.266 26.9531 161.626 24.8497C161.98 22.7864 162.372 20.7269 162.696 18.7246C162.442 18.4536 162.228 18.5318 162.029 18.5795C159.763 19.114 157.498 19.6522 155.232 20.1886C155.058 20.2306 154.878 20.2459 154.66 20.2802C154.241 19.4709 154.211 18.5738 154.005 17.734C153.802 16.9151 153.569 16.0925 153.523 15.2717C153.796 14.9415 154.154 14.9606 154.469 14.8862C156.532 14.4052 158.596 13.9318 160.663 13.4661C164.113 12.6892 167.568 11.9296 171.016 11.147C173.761 10.5228 176.5 9.87388 179.241 9.24019C179.565 9.16575 179.893 9.1123 180.289 9.03405L180.292 9.02832Z" fill="white"/>
<path d="M94.7037 23.1914C94.0653 26.9515 93.444 30.6067 92.8188 34.2619C92.7942 34.4051 92.7317 34.5406 92.6559 34.7716C92.2752 34.1264 92.2657 33.4794 92.1122 32.8762C91.955 32.2616 91.811 31.6413 91.6595 31.0209C91.0912 30.914 90.6138 31.1717 90.1137 31.2232C89.9641 31.2385 89.8182 31.2805 89.6685 31.2939C89.6193 31.2977 89.5643 31.2538 89.498 31.2252C89.5189 31.1412 89.5208 31.0419 89.5662 30.9713C91.1707 28.4289 92.7809 25.8884 94.393 23.3498C94.4195 23.3078 94.4934 23.2963 94.7056 23.1895L94.7037 23.1914Z" fill="#0D0D0D"/>
<path d="M66.0543 44.3244C66.0543 44.1717 66.0353 44.0305 66.0581 43.895C66.6245 40.5624 67.1947 37.2316 67.7649 33.9009C67.7914 33.7501 67.816 33.6013 67.852 33.4524C67.9088 33.2252 68.0566 33.0859 68.2839 33.0344C70.1063 32.6125 71.9286 32.1907 73.7529 31.7708C73.7737 31.767 73.8021 31.8013 73.8665 31.8452C73.8002 31.9979 73.7472 32.1697 73.6563 32.3186C71.2012 36.3021 68.7405 40.2837 66.2778 44.2634C66.2551 44.2996 66.1698 44.2958 66.0562 44.3244H66.0543Z" fill="#0D0D0D"/>
</g>
<defs>
<clipPath id="clip0_212_1509">
<rect width="185.684" height="72" fill="white"/>
</clipPath>
</defs>
</svg>
