<svg width="37" height="39" viewBox="0 0 37 39" fill="none" xmlns="http://www.w3.org/2000/svg">
<path fill-rule="evenodd" clip-rule="evenodd" d="M28.2172 16.9518C28.2172 18.6215 27.9043 20.275 27.2966 21.8176C26.6888 23.3603 25.798 24.762 24.675 25.9427C23.552 27.1234 22.2188 28.06 20.7515 28.699C19.2842 29.338 17.7116 29.6668 16.1234 29.6668C14.5352 29.6668 12.9626 29.338 11.4953 28.699C10.0281 28.06 8.69485 27.1234 7.57184 25.9427C6.44883 24.762 5.55801 23.3603 4.95024 21.8176C4.34248 20.275 4.02966 18.6215 4.02966 16.9518C4.02966 13.5795 5.30382 10.3454 7.57184 7.96085C9.83986 5.57631 12.9159 4.23669 16.1234 4.23669C19.3309 4.23669 22.407 5.57631 24.675 7.96085C26.943 10.3454 28.2172 13.5795 28.2172 16.9518ZM26.0134 30.345C22.7733 32.9897 18.6963 34.2367 14.6125 33.8321C10.5287 33.4276 6.74496 31.402 4.03168 28.1676C1.31839 24.9332 -0.120508 20.7332 0.00791192 16.4227C0.136332 12.1121 1.82241 8.01507 4.72291 4.96556C7.62341 1.91604 11.5203 0.143336 15.6202 0.0083184C19.7201 -0.126699 23.7148 1.38612 26.7912 4.23881C29.8675 7.09149 31.7942 11.0696 32.1789 15.3632C32.5637 19.6569 31.3776 23.9433 28.8622 27.3499L36.3603 35.2332C36.5583 35.4272 36.7172 35.6612 36.8273 35.9211C36.9375 36.1811 36.9967 36.4617 37.0015 36.7463C37.0063 37.0308 36.9565 37.3134 36.8551 37.5773C36.7537 37.8412 36.6029 38.0809 36.4114 38.2821C36.2201 38.4834 35.9921 38.642 35.7411 38.7486C35.4901 38.8552 35.2213 38.9075 34.9506 38.9025C34.68 38.8975 34.4131 38.8352 34.1658 38.7194C33.9186 38.6035 33.6961 38.4365 33.5115 38.2283L26.0134 30.345Z" fill="black"/>
</svg>
