<svg width="25" height="25" viewBox="0 0 25 25" fill="none" xmlns="http://www.w3.org/2000/svg">
<path fill-rule="evenodd" clip-rule="evenodd" d="M15.6062 17.0677C13.7491 18.5517 11.3942 19.2681 9.02537 19.07C6.65649 18.8718 4.4534 17.7741 2.86857 16.0022C1.28374 14.2303 0.437483 11.9188 0.503602 9.54247C0.569721 7.1661 1.5432 4.90525 3.2241 3.22425C4.905 1.54326 7.16572 0.569725 9.54195 0.503602C11.9182 0.43748 14.2295 1.28379 16.0013 2.86871C17.7731 4.45363 18.8708 6.65684 19.0689 9.02586C19.2671 11.3949 18.5506 13.7498 17.0668 15.6071L24.1711 22.7104C24.2726 22.8051 24.3541 22.9191 24.4105 23.0459C24.467 23.1727 24.4974 23.3095 24.4998 23.4483C24.5023 23.5871 24.4768 23.7249 24.4248 23.8536C24.3728 23.9823 24.2955 24.0992 24.1973 24.1973C24.0992 24.2954 23.9823 24.3728 23.8536 24.4248C23.7249 24.4768 23.5871 24.5023 23.4484 24.4998C23.3096 24.4974 23.1728 24.467 23.046 24.4105C22.9192 24.354 22.8052 24.2726 22.7105 24.1711L15.6062 17.0677ZM4.68523 14.9154C3.67393 13.9039 2.98514 12.6153 2.70593 11.2125C2.42672 9.80967 2.56961 8.35555 3.11654 7.03391C3.66347 5.71226 4.58989 4.58243 5.77872 3.78718C6.96756 2.99194 8.36544 2.56698 9.79571 2.56602C11.226 2.56505 12.6244 2.98813 13.8143 3.78177C15.0042 4.57542 15.9322 5.70401 16.4809 7.02491C17.0296 8.34582 17.1744 9.79975 16.8971 11.203C16.6198 12.6062 15.9328 13.8957 14.9228 14.9085L14.9159 14.9154L14.909 14.9209C13.552 16.2749 11.713 17.0348 9.79599 17.0338C7.87902 17.0328 6.04084 16.2708 4.68523 14.9154Z" fill="#FBFBFB"/>
</svg>
