<svg width="25" height="29" viewBox="0 0 25 29" fill="none" xmlns="http://www.w3.org/2000/svg">
<path fill-rule="evenodd" clip-rule="evenodd" d="M12.5 25C19.4035 25 25 19.4035 25 12.5C25 5.5965 19.4035 0 12.5 0C5.5965 0 0 5.5965 0 12.5C0 19.4035 5.5965 25 12.5 25ZM6.25 8.5C6.3515 13.372 8.7875 16.3 13.0583 16.3H13.3003V13.5125C14.8698 13.6687 16.0562 14.8165 16.5327 16.3H18.75C18.141 14.0825 16.5405 12.8568 15.541 12.3883C16.5405 11.8105 17.9457 10.405 18.2815 8.5H16.267C15.8298 10.046 14.534 11.4513 13.3003 11.584V8.5H11.286V13.9028C10.0367 13.5905 8.4595 12.076 8.389 8.5H6.25Z" fill="white"/>
</svg>
