<svg width="25" height="29" viewBox="0 0 25 29" fill="none" xmlns="http://www.w3.org/2000/svg">
<path fill-rule="evenodd" clip-rule="evenodd" d="M12.5 25C19.4035 25 25 19.4035 25 12.5C25 5.5965 19.4035 0 12.5 0C5.5965 0 0 5.5965 0 12.5C0 19.4035 5.5965 25 12.5 25ZM16.975 8.1565C17.9345 8.243 18.475 8.83025 18.5935 9.766C18.6765 10.419 18.75 11.354 18.75 12.3597C18.75 14.1257 18.5935 15.1468 18.5935 15.1468C18.4465 16.0788 17.996 16.5847 17.0485 16.6917C15.9897 16.8118 13.6085 16.8668 12.5505 16.8668C11.4555 16.8668 9.24125 16.8207 8.1355 16.7288C7.1855 16.6495 6.537 16.1187 6.4065 15.1742C6.3115 14.4862 6.25 13.6687 6.25 12.3687C6.25 10.9217 6.30225 10.3093 6.425 9.6555C6.59975 8.7225 7.045 8.2705 8.062 8.1655C9.129 8.05525 10.1375 8 12.3942 8C13.4975 8 15.8763 8.057 16.975 8.1565ZM11.171 10.5968V14.1903L14.5925 12.375L11.171 10.5968Z" fill="white"/>
</svg>
